<?xml version="1.0" encoding="utf-8"?>
<!-- Generator: Adobe Illustrator 24.0.0, SVG Export Plug-In . SVG Version: 6.00 Build 0)  -->
<svg version="1.1" id="Layer_1" xmlns="http://www.w3.org/2000/svg" xmlns:xlink="http://www.w3.org/1999/xlink" x="0px" y="0px"
	 viewBox="0 0 1000 1000" style="enable-background:new 0 0 1000 1000;" xml:space="preserve">
<style type="text/css">
	.st0{fill:url(#SVGID_1_);}
	.st1{fill:#FFFFFF;}
</style>
<linearGradient id="SVGID_1_" gradientUnits="userSpaceOnUse" x1="24.3776" y1="500" x2="975.6224" y2="500">
	<stop  offset="0" style="stop-color:#29ABE2"/>
	<stop  offset="1" style="stop-color:#0071BC"/>
</linearGradient>
<circle class="st0" cx="500" cy="500" r="475.62"/>
<g>
	<path class="st1" d="M801.55,469.49c0,63.7-51.64,115.33-115.33,115.33v68.63c101.6,0,183.97-82.37,183.97-183.97
		c0-101.6-82.37-183.97-183.97-183.97v68.63C749.91,354.15,801.55,405.79,801.55,469.49z"/>
	<path class="st1" d="M680.95,532.41h-55.39c-2.91,0-5.27-2.36-5.27-5.27V175.8c0-2.91,2.36-5.27,5.27-5.27h55.39
		c2.91,0,5.27,2.36,5.27,5.27v351.34C686.21,530.05,683.86,532.41,680.95,532.41z"/>
	<rect x="510.49" y="285.52" class="st1" width="65.92" height="367.94"/>
	<path class="st1" d="M312.14,584.83L312.14,584.83c-63.7-0.01-115.33-51.64-115.33-115.34c0-53.67,36.66-98.79,86.32-111.65
		c17.12-4.44,29.02-19.96,29.02-37.64v0c0-19.87-18.26-34.86-37.71-30.81c-83.51,17.4-146.26,91.42-146.26,180.1
		c0,101.6,82.37,183.97,183.97,183.97h106.17v-68.63H312.14z"/>
	
		<rect x="597" y="564.24" transform="matrix(6.123234e-17 -1 1 6.123234e-17 12.1684 1250.4531)" class="st1" width="68.63" height="109.81"/>
	<rect x="352.39" y="285.52" class="st1" width="65.92" height="367.94"/>
	<g>
		<path class="st1" d="M464.4,239.43c25.45,0,46.09,20.63,46.09,46.09h65.92c0-61.86-50.15-112.01-112.01-112.01
			s-112.01,50.15-112.01,112.01h65.92C418.31,260.07,438.94,239.43,464.4,239.43z"/>
	</g>
	<g>
		<path class="st1" d="M151.71,740.12c-2.11,0-3.92-0.76-5.43-2.27c-1.51-1.51-2.27-3.32-2.27-5.43v-24.49
			c0-2.1,0.75-3.91,2.27-5.42c1.51-1.51,3.32-2.27,5.43-2.27h32.07v7.36h-30.52c-1.03,0-1.62,0.07-1.74,0.2
			c-0.13,0.13-0.2,0.71-0.2,1.74v21.28c0,1.03,0.06,1.62,0.2,1.74c0.13,0.13,0.71,0.19,1.74,0.19h30.52v7.37H151.71z"/>
		<path class="st1" d="M233.81,740.12v-39.83h32.13c2.14,0,3.97,0.76,5.48,2.3c1.51,1.54,2.27,3.33,2.27,5.4v10.75
			c0,2.1-0.76,3.92-2.27,5.43c-1.51,1.51-3.34,2.27-5.48,2.27h-2.16l9.86,11.63v2.05h-7.98l-11.47-13.68l-13.07,0.05v13.63H233.81z
			 M243.06,719.06h21.33c1,0,1.56-0.05,1.69-0.17c0.13-0.11,0.19-0.68,0.19-1.71v-7.65c0-1.03-0.06-1.62-0.19-1.74
			c-0.13-0.13-0.69-0.2-1.69-0.2h-21.33c-1.03,0-1.62,0.07-1.74,0.2c-0.13,0.13-0.19,0.71-0.19,1.74v7.65c0,1.03,0.06,1.6,0.19,1.71
			C241.45,719.01,242.03,719.06,243.06,719.06z"/>
		<path class="st1" d="M324,740.12v-39.89h36.73v7.36h-29.36v8.87h23.6v7.43h-23.6v8.86h29.36v7.37H324z"/>
		<path class="st1" d="M410.76,740.12v-32.19c0-2.1,0.76-3.91,2.27-5.42c1.51-1.51,3.32-2.27,5.43-2.27h24.43
			c2.14,0,3.97,0.76,5.48,2.27c1.51,1.51,2.27,3.32,2.27,5.42v32.19h-7.37v-13.4h-25.21v13.4H410.76z M418.07,719.4h25.21v-9.86
			c0-1.03-0.07-1.62-0.22-1.74s-0.72-0.2-1.72-0.2h-21.33c-1.03,0-1.62,0.07-1.74,0.2c-0.13,0.13-0.19,0.71-0.19,1.74V719.4z"/>
		<path class="st1" d="M515.58,740.12v-32.52h-16.29v-7.36h39.89v7.36h-16.23v32.52H515.58z"/>
		<path class="st1" d="M587.43,740.12v-39.89h7.26v39.89H587.43z"/>
		<path class="st1" d="M665.76,740.12l-23.1-39.89h8.53l17.84,31.02l17.89-31.02h8.48l-23.1,39.89H665.76z"/>
		<path class="st1" d="M743.81,740.12v-39.89h36.73v7.36h-29.36v8.87h23.6v7.43h-23.6v8.86h29.36v7.37H743.81z"/>
		<path class="st1" d="M838,740.12c-2.11,0-3.92-0.76-5.43-2.27c-1.51-1.51-2.27-3.32-2.27-5.43v-3.04h7.31v1.44
			c0,1.03,0.06,1.62,0.19,1.74c0.13,0.13,0.71,0.19,1.74,0.19h21.33c1.03,0,1.62-0.06,1.74-0.19c0.13-0.13,0.2-0.71,0.2-1.74v-5.04
			c0-1.03-0.06-1.6-0.2-1.72c-0.13-0.11-0.71-0.16-1.74-0.16H838c-2.11,0-3.92-0.77-5.43-2.3c-1.51-1.54-2.27-3.35-2.27-5.46v-8.2
			c0-2.1,0.76-3.91,2.27-5.42c1.51-1.51,3.32-2.27,5.43-2.27h24.48c2.11,0,3.92,0.76,5.43,2.27s2.27,3.32,2.27,5.42v3.05h-7.37
			v-1.44c0-1.03-0.06-1.62-0.2-1.74c-0.13-0.13-0.71-0.2-1.74-0.2h-21.33c-1.03,0-1.61,0.07-1.74,0.2
			c-0.13,0.13-0.19,0.71-0.19,1.74v5.04c0,1.03,0.06,1.61,0.19,1.72c0.13,0.11,0.71,0.17,1.74,0.17h22.94c2.11,0,3.92,0.76,5.43,2.3
			s2.27,3.35,2.27,5.46v8.2c0,2.11-0.76,3.92-2.27,5.43s-3.32,2.27-5.43,2.27H838z"/>
	</g>
</g>
</svg>
